<svg width="209" height="29" viewBox="0 0 209 29" fill="none" xmlns="http://www.w3.org/2000/svg">
<path d="M188.292 28V1.32401H193.728L201.468 15.544L204.168 21.304H204.348C204.204 19.912 204.048 18.388 203.88 16.732C203.712 15.076 203.628 13.492 203.628 11.98V1.32401H208.668V28H203.232L195.564 13.744L192.864 8.02001H192.684C192.804 9.46001 192.948 10.984 193.116 12.592C193.284 14.2 193.368 15.772 193.368 17.308V28H188.292Z" fill="#333333"/>
<path d="M157.87 28L152.758 1.32401H158.194L160.246 14.356C160.486 15.748 160.702 17.152 160.894 18.568C161.11 19.984 161.314 21.412 161.506 22.852H161.65C161.938 21.412 162.226 19.984 162.514 18.568C162.802 17.152 163.078 15.748 163.342 14.356L166.402 1.32401H170.974L174.07 14.356C174.358 15.724 174.634 17.128 174.898 18.568C175.186 19.984 175.474 21.412 175.762 22.852H175.942C176.134 21.412 176.326 19.984 176.518 18.568C176.734 17.152 176.938 15.748 177.13 14.356L179.254 1.32401H184.294L179.362 28H172.738L169.75 14.788C169.534 13.756 169.33 12.736 169.138 11.728C168.946 10.696 168.778 9.67601 168.634 8.66801H168.49C168.298 9.67601 168.094 10.696 167.878 11.728C167.686 12.736 167.494 13.756 167.302 14.788L164.386 28H157.87Z" fill="#333333"/>
<path d="M138.512 28.504C136.16 28.504 134.084 27.952 132.284 26.848C130.508 25.72 129.116 24.112 128.108 22.024C127.1 19.936 126.596 17.44 126.596 14.536C126.596 11.656 127.1 9.19602 128.108 7.15602C129.116 5.11602 130.508 3.55602 132.284 2.47602C134.084 1.39602 136.16 0.856018 138.512 0.856018C140.888 0.856018 142.964 1.40802 144.74 2.51202C146.516 3.59202 147.908 5.15202 148.916 7.19202C149.924 9.20802 150.428 11.656 150.428 14.536C150.428 17.44 149.924 19.936 148.916 22.024C147.908 24.112 146.516 25.72 144.74 26.848C142.964 27.952 140.888 28.504 138.512 28.504ZM138.512 23.896C139.832 23.896 140.972 23.512 141.932 22.744C142.916 21.976 143.672 20.896 144.2 19.504C144.728 18.088 144.992 16.432 144.992 14.536C144.992 12.64 144.728 11.02 144.2 9.67602C143.672 8.30802 142.916 7.26402 141.932 6.54402C140.972 5.80002 139.832 5.42802 138.512 5.42802C137.192 5.42802 136.04 5.80002 135.056 6.54402C134.096 7.26402 133.352 8.30802 132.824 9.67602C132.32 11.02 132.068 12.64 132.068 14.536C132.068 16.432 132.32 18.088 132.824 19.504C133.352 20.896 134.096 21.976 135.056 22.744C136.04 23.512 137.192 23.896 138.512 23.896Z" fill="#333333"/>
<path d="M102.229 28V1.32401H109.537C112.273 1.32401 114.613 1.80401 116.557 2.76401C118.525 3.72401 120.037 5.17601 121.093 7.12001C122.173 9.06401 122.713 11.536 122.713 14.536C122.713 17.536 122.185 20.032 121.129 22.024C120.073 24.016 118.585 25.516 116.665 26.524C114.745 27.508 112.465 28 109.825 28H102.229ZM107.557 23.68H109.177C110.857 23.68 112.297 23.38 113.497 22.78C114.721 22.156 115.657 21.172 116.305 19.828C116.953 18.46 117.277 16.696 117.277 14.536C117.277 12.376 116.953 10.648 116.305 9.35201C115.657 8.03201 114.721 7.08401 113.497 6.50801C112.297 5.90801 110.857 5.60801 109.177 5.60801H107.557V23.68Z" fill="#333333"/>
<path d="M78.2174 28V1.32401H86.9654C88.9334 1.32401 90.6974 1.58801 92.2574 2.11601C93.8414 2.64401 95.0894 3.52001 96.0014 4.74401C96.9374 5.94401 97.4054 7.60001 97.4054 9.71201C97.4054 11.728 96.9374 13.396 96.0014 14.716C95.0894 16.012 93.8534 16.972 92.2934 17.596C90.7574 18.22 89.0294 18.532 87.1094 18.532H83.5454V28H78.2174ZM83.5454 14.32H86.7494C88.5734 14.32 89.9294 13.936 90.8174 13.168C91.7294 12.4 92.1854 11.248 92.1854 9.71201C92.1854 8.17601 91.7054 7.10801 90.7454 6.50801C89.8094 5.88401 88.4174 5.57201 86.5694 5.57201H83.5454V14.32Z" fill="#333333"/>
<path d="M61.0983 28.504C58.7463 28.504 56.6703 27.952 54.8703 26.848C53.0943 25.72 51.7023 24.112 50.6943 22.024C49.6863 19.936 49.1823 17.44 49.1823 14.536C49.1823 11.656 49.6863 9.19602 50.6943 7.15602C51.7023 5.11602 53.0943 3.55602 54.8703 2.47602C56.6703 1.39602 58.7463 0.856018 61.0983 0.856018C63.4743 0.856018 65.5502 1.40802 67.3262 2.51202C69.1022 3.59202 70.4943 5.15202 71.5023 7.19202C72.5103 9.20802 73.0143 11.656 73.0143 14.536C73.0143 17.44 72.5103 19.936 71.5023 22.024C70.4943 24.112 69.1022 25.72 67.3262 26.848C65.5502 27.952 63.4743 28.504 61.0983 28.504ZM61.0983 23.896C62.4183 23.896 63.5582 23.512 64.5182 22.744C65.5022 21.976 66.2583 20.896 66.7863 19.504C67.3143 18.088 67.5782 16.432 67.5782 14.536C67.5782 12.64 67.3143 11.02 66.7863 9.67602C66.2583 8.30802 65.5022 7.26402 64.5182 6.54402C63.5582 5.80002 62.4183 5.42802 61.0983 5.42802C59.7783 5.42802 58.6263 5.80002 57.6423 6.54402C56.6823 7.26402 55.9383 8.30802 55.4103 9.67602C54.9063 11.02 54.6543 12.64 54.6543 14.536C54.6543 16.432 54.9063 18.088 55.4103 19.504C55.9383 20.896 56.6823 21.976 57.6423 22.744C58.6263 23.512 59.7783 23.896 61.0983 23.896Z" fill="#333333"/>
<path d="M25.9752 28V1.32401H35.2272C37.1232 1.32401 38.8272 1.57601 40.3392 2.08001C41.8512 2.56001 43.0512 3.40001 43.9392 4.60001C44.8272 5.77601 45.2712 7.38401 45.2712 9.42401C45.2712 11.392 44.8272 13.012 43.9392 14.284C43.0512 15.532 41.8512 16.456 40.3392 17.056C38.8272 17.632 37.1232 17.92 35.2272 17.92H31.3032V28H25.9752ZM31.3032 13.708H34.7592C36.4872 13.708 37.7952 13.348 38.6832 12.628C39.5952 11.908 40.0512 10.84 40.0512 9.42401C40.0512 7.98401 39.5952 6.98801 38.6832 6.43601C37.7952 5.86001 36.4872 5.57201 34.7592 5.57201H31.3032V13.708ZM40.4472 28L34.2552 16.552L37.9992 13.24L46.4232 28H40.4472Z" fill="#333333"/>
<path d="M0.276001 28V1.32401H7.584C10.32 1.32401 12.66 1.80401 14.604 2.76401C16.572 3.72401 18.084 5.17601 19.14 7.12001C20.22 9.06401 20.76 11.536 20.76 14.536C20.76 17.536 20.232 20.032 19.176 22.024C18.12 24.016 16.632 25.516 14.712 26.524C12.792 27.508 10.512 28 7.872 28H0.276001ZM5.604 23.68H7.224C8.904 23.68 10.344 23.38 11.544 22.78C12.768 22.156 13.704 21.172 14.352 19.828C15 18.46 15.324 16.696 15.324 14.536C15.324 12.376 15 10.648 14.352 9.35201C13.704 8.03201 12.768 7.08401 11.544 6.50801C10.344 5.90801 8.904 5.60801 7.224 5.60801H5.604V23.68Z" fill="#333333"/>
</svg>
