<svg width="140" height="29" viewBox="0 0 140 29" fill="none" xmlns="http://www.w3.org/2000/svg">
<path d="M119.491 28V1.32401H128.743C130.639 1.32401 132.343 1.57601 133.855 2.08001C135.367 2.56001 136.567 3.40001 137.455 4.60001C138.343 5.77601 138.787 7.38401 138.787 9.42401C138.787 11.392 138.343 13.012 137.455 14.284C136.567 15.532 135.367 16.456 133.855 17.056C132.343 17.632 130.639 17.92 128.743 17.92H124.819V28H119.491ZM124.819 13.708H128.275C130.003 13.708 131.311 13.348 132.199 12.628C133.111 11.908 133.567 10.84 133.567 9.42401C133.567 7.98401 133.111 6.98801 132.199 6.43601C131.311 5.86001 130.003 5.57201 128.275 5.57201H124.819V13.708ZM133.963 28L127.771 16.552L131.515 13.24L139.939 28H133.963Z" fill="#FCFCFC"/>
<path d="M97.3424 28V1.32401H113.686V5.78801H102.67V11.944H111.994V16.408H102.67V23.536H114.082V28H97.3424Z" fill="#FCFCFC"/>
<path d="M80.1344 28V5.78801H72.6464V1.32401H92.9864V5.78801H85.4624V28H80.1344Z" fill="#FCFCFC"/>
<path d="M59.024 28.504C56.672 28.504 54.596 27.952 52.796 26.848C51.02 25.72 49.628 24.112 48.62 22.024C47.612 19.936 47.108 17.44 47.108 14.536C47.108 11.656 47.612 9.19602 48.62 7.15602C49.628 5.11602 51.02 3.55602 52.796 2.47602C54.596 1.39602 56.672 0.856018 59.024 0.856018C61.4 0.856018 63.476 1.40802 65.252 2.51202C67.028 3.59202 68.42 5.15202 69.428 7.19202C70.436 9.20802 70.94 11.656 70.94 14.536C70.94 17.44 70.436 19.936 69.428 22.024C68.42 24.112 67.028 25.72 65.252 26.848C63.476 27.952 61.4 28.504 59.024 28.504ZM59.024 23.896C60.344 23.896 61.484 23.512 62.444 22.744C63.428 21.976 64.184 20.896 64.712 19.504C65.24 18.088 65.504 16.432 65.504 14.536C65.504 12.64 65.24 11.02 64.712 9.67602C64.184 8.30802 63.428 7.26402 62.444 6.54402C61.484 5.80002 60.344 5.42802 59.024 5.42802C57.704 5.42802 56.552 5.80002 55.568 6.54402C54.608 7.26402 53.864 8.30802 53.336 9.67602C52.832 11.02 52.58 12.64 52.58 14.536C52.58 16.432 52.832 18.088 53.336 19.504C53.864 20.896 54.608 21.976 55.568 22.744C56.552 23.512 57.704 23.896 59.024 23.896Z" fill="#FCFCFC"/>
<path d="M31.3209 28.504C28.9689 28.504 26.8929 27.952 25.0929 26.848C23.3169 25.72 21.9249 24.112 20.9169 22.024C19.9089 19.936 19.4049 17.44 19.4049 14.536C19.4049 11.656 19.9089 9.19602 20.9169 7.15602C21.9249 5.11602 23.3169 3.55602 25.0929 2.47602C26.8929 1.39602 28.9689 0.856018 31.3209 0.856018C33.6969 0.856018 35.7729 1.40802 37.5489 2.51202C39.3249 3.59202 40.7169 5.15202 41.7249 7.19202C42.7329 9.20802 43.2369 11.656 43.2369 14.536C43.2369 17.44 42.7329 19.936 41.7249 22.024C40.7169 24.112 39.3249 25.72 37.5489 26.848C35.7729 27.952 33.6969 28.504 31.3209 28.504ZM31.3209 23.896C32.6409 23.896 33.7809 23.512 34.7409 22.744C35.7249 21.976 36.4809 20.896 37.0089 19.504C37.5369 18.088 37.8009 16.432 37.8009 14.536C37.8009 12.64 37.5369 11.02 37.0089 9.67602C36.4809 8.30802 35.7249 7.26402 34.7409 6.54402C33.7809 5.80002 32.6409 5.42802 31.3209 5.42802C30.0009 5.42802 28.8489 5.80002 27.8649 6.54402C26.9049 7.26402 26.1609 8.30802 25.6329 9.67602C25.1289 11.02 24.8769 12.64 24.8769 14.536C24.8769 16.432 25.1289 18.088 25.6329 19.504C26.1609 20.896 26.9049 21.976 27.8649 22.744C28.8489 23.512 30.0009 23.896 31.3209 23.896Z" fill="#FCFCFC"/>
<path d="M0.276001 28V1.32401H16.692V5.78801H5.604V12.736H15.072V17.2H5.604V28H0.276001Z" fill="#FCFCFC"/>
</svg>
