<svg width="142" height="27" viewBox="0 0 142 27" fill="none" xmlns="http://www.w3.org/2000/svg">
<path d="M120.581 27V0.324005H129.833C131.729 0.324005 133.433 0.576005 134.945 1.08001C136.457 1.56001 137.657 2.40001 138.545 3.60001C139.433 4.77601 139.877 6.38401 139.877 8.42401C139.877 10.392 139.433 12.012 138.545 13.284C137.657 14.532 136.457 15.456 134.945 16.056C133.433 16.632 131.729 16.92 129.833 16.92H125.909V27H120.581ZM125.909 12.708H129.365C131.093 12.708 132.401 12.348 133.289 11.628C134.201 10.908 134.657 9.84001 134.657 8.42401C134.657 6.98401 134.201 5.98801 133.289 5.43601C132.401 4.86001 131.093 4.57201 129.365 4.57201H125.909V12.708ZM135.053 27L128.861 15.552L132.605 12.24L141.029 27H135.053Z" fill="#333333"/>
<path d="M98.4323 27V0.324005H114.776V4.78801H103.76V10.944H113.084V15.408H103.76V22.536H115.172V27H98.4323Z" fill="#333333"/>
<path d="M72.733 27V0.324005H80.041C82.777 0.324005 85.117 0.804006 87.061 1.76401C89.029 2.72401 90.541 4.17601 91.597 6.12001C92.677 8.06401 93.217 10.536 93.217 13.536C93.217 16.536 92.689 19.032 91.633 21.024C90.577 23.016 89.089 24.516 87.169 25.524C85.249 26.508 82.969 27 80.329 27H72.733ZM78.061 22.68H79.681C81.361 22.68 82.801 22.38 84.001 21.78C85.225 21.156 86.161 20.172 86.809 18.828C87.457 17.46 87.781 15.696 87.781 13.536C87.781 11.376 87.457 9.64801 86.809 8.35201C86.161 7.03201 85.225 6.08401 84.001 5.50801C82.801 4.90801 81.361 4.60801 79.681 4.60801H78.061V22.68Z" fill="#333333"/>
<path d="M46.2505 27L54.7826 0.324005H61.0826L69.6146 27H63.9986L60.2186 13.104C59.8106 11.712 59.4146 10.272 59.0306 8.78401C58.6706 7.27201 58.2866 5.80801 57.8786 4.39201H57.7346C57.3986 5.83201 57.0265 7.29601 56.6185 8.78401C56.2345 10.272 55.8505 11.712 55.4665 13.104L51.6506 27H46.2505ZM51.5425 20.16V16.02H64.2146V20.16H51.5425Z" fill="#333333"/>
<path d="M27.5221 27V0.324005H43.8661V4.78801H32.8501V10.944H42.1741V15.408H32.8501V22.536H44.2621V27H27.5221Z" fill="#333333"/>
<path d="M0.276001 27V0.324005H5.604V10.872H15.684V0.324005H20.976V27H15.684V15.48H5.604V27H0.276001Z" fill="#333333"/>
</svg>
